<svg viewBox="0 0 100 100" xmlns="http://www.w3.org/2000/svg">
  <g stroke="#444" stroke-width="1" fill="none" stroke-linecap="round" stroke-linejoin="round">
    <path d="M50 95 C 45 80, 45 70, 50 60" />
    <path d="M50 95 C 55 80, 55 70, 50 60" />
    <path d="M40 65 C 30 50, 35 35, 45 30" />
    <path d="M60 65 C 70 50, 65 35, 55 30" />
    <path d="M50 60 C 40 50, 45 40, 50 35" />
    <path d="M50 60 C 60 50, 55 40, 50 35" />
    <circle cx="50" cy="28" r="5" fill="#F5B7B1" />
    <circle cx="40" cy="35" r="7" fill="#FADBD8" />
    <circle cx="60" cy="35" r="7" fill="#FADBD8" />
    <circle cx="50" cy="45" r="8" fill="#F1948A" />
  </g>
</svg>